<?xml version="1.0" encoding="utf-8"?>
<?xml-stylesheet type="text/xsl" href="rss1.xsl"?>
<rss version="2.0" xmlns:atom="http://www.w3.org/2005/Atom" xmlns:content="http://purl.org/rss/1.0/modules/content/" xmlns:dc="http://purl.org/dc/elements/1.1/" xmlns:media="http://search.yahoo.com/mrss/">
<channel>
 <title>Getty</title>
 <link>http://www.gettyimg.com/</link>
 <atom:link href="http://www.gettyimg.com/" rel="self" type="application/rss+xml" />

 
                <item>
                <title><![CDATA[【PRORES HD】Alice Chater - Two Of Us [Master ProRes 4K]]]></title>
                <link><![CDATA[https://sharemania.us/threads/alice-chater-two-of-us-master-prores-4k.220407/]]></link>
                <description><![CDATA[<article>
<blockquote class="messageText SelectQuoteContainer ugc baseHtml">
<div style="text-align: center"><img src="https://i.ibb.co/9cpVxvw/Alice-Chater-Two-Of-Us-Master-Pro-Res-4-K-mov.png" class="bbCodeImage LbImage" alt="[​IMG]" data-url="https://i.ibb.co/9cpVxvw/Alice-Chater-Two-Of-Us-Master-Pro-Res-4-K-mov.png" style=""> <br>
<br>
<div class="ToggleTriggerAnchor bbCodeSpoilerContainer">
<button type="button" class="button bbCodeSpoilerButton ToggleTrigger Tooltip JsOnly" data-target="> .SpoilerTarget"><span>Spoiler: <span class="SpoilerTitle">Mediainfo</span></span></button>
<div class="SpoilerTarget bbCodeSpoilerText"><b>General</b><br>
Complete name : Alice Chater - Two of Us [Master ProRes 4K].mov<br>
Format : MPEG-4<br>
Format profile : QuickTime<br>
Codec ID : qt 2005.03 (qt )<br>
File size : 22.7 GiB<br>
Duration : 4 min 34 s<br>
Overall bit rate mode : Variable<br>
Overall bit rate : 712 Mb/s<br>
Encoded date : UTC 2020-05-23 21:09:43<br>
Tagged date : UTC 2020-05-20 21:11:33<br>
Writing library : Apple QuickTime<br>
TIM : 00:00:00:00<br>
TSC : 24000<br>
TSZ : 1001<br>
<br>
<b>Video</b><br>
ID : 1<br>
Format : ProRes<br>
Format version : Version 0<br>
Format profile : 422 HQ<br>
Codec ID : apch<br>
Duration : 4 min 34 s<br>
Bit rate mode : Variable<br>
Bit rate : 710 Mb/s<br>
Width : 3 840 pixels<br>
Height : 2 160 pixels<br>
Display aspect ratio : 16:9<br>
Frame rate mode : Constant<br>
Frame rate : 23.976 (24000/1001) FPS<br>
Color space : YUV<br>
Chroma subsampling : 4:2:2<br>
Scan type : Progressive<br>
Bits/(Pixel*Frame) : 3.571<br>
Stream size : 22.7 GiB (100%)<br>
Writing library : Apple<br>
Language : English<br>
Encoded date : UTC 2020-05-23 21:09:43<br>
Tagged date : UTC 2020-05-23 21:09:43<br>
Color primaries : BT.709<br>
Transfer characteristics : BT.709<br>
Matrix coefficients : BT.709<br>
<br>
<b>Audio</b><br>
ID : 2<br>
Format : PCM<br>
Format settings : Little / Signed<br>
Codec ID : sowt<br>
Duration : 4 min 34 s<br>
Bit rate mode : Constant<br>
Bit rate : 1 536 kb/s<br>
Channel(s) : 2 channels<br>
Channel layout : L R<br>
Sampling rate : 48.0 kHz<br>
Bit depth : 16 bits<br>
Stream size : 50.2 MiB (0%)<br>
Language : English<br>
Encoded date : UTC 2020-05-23 21:09:43<br>
Tagged date  : UTC 2020-05-23 21:09:43<br>
<br>
<b>Other</b><br>
ID : 3<br>
Type : Time code<br>
Format : QuickTime TC<br>
Duration : 4 min 34 s<br>
Frame rate : 23.976 (24000/1001) FPS<br>
Time code of first frame : 00:00:00:00<br>
Time code of last frame : 00:04:33:22<br>
Time code, stripped : Yes<br>
Language : English<br>
Encoded date : UTC 2020-05-23 21:09:43<br>
Tagged date : UTC 2020-05-23 21:09:43</div>
</div></div><br>
<div style="text-align: center">
<div class="bbCodeBlock bbCodeVfcHH HiddenContent">
<div class="attribution type">Hidden Content:</div>
<blockquote>You must reply before you can see the hidden data contained here.</blockquote>
</div></div>
<div class="messageTextEndMarker">&nbsp;</div>
</blockquote>
</article>]]></description>
                <author><![CDATA[von_3649]]></author>
                </item>

                </channel></rss>